HIERARCHY
ROOT Hips
{
	OFFSET 4.076200 -17.275196 43.303001
	CHANNELS 6 Xposition Yposition Zposition Zrotation Xrotation Yrotation
	JOINT Chest
	{
		OFFSET -0.689800 0.941999 5.341000
		CHANNELS 6 Xposition Yposition Zposition Zrotation Xrotation Yrotation
		JOINT Chest2
		{
			OFFSET 0.000000 0.000000 4.278900
			CHANNELS 6 Xposition Yposition Zposition Zrotation Xrotation Yrotation
			JOINT Neck
			{
				OFFSET 0.000000 0.000000 9.970299
				CHANNELS 6 Xposition Yposition Zposition Zrotation Xrotation Yrotation
				JOINT Head
				{
					OFFSET 0.000000 0.000002 2.173901
					CHANNELS 6 Xposition Yposition Zposition Zrotation Xrotation Yrotation
					End Site
					{
						OFFSET 0.000000 0.000000 6.488197
					}
				}
			}
			JOINT LeftCollar
			{
				OFFSET 2.472300 -0.285801 5.433899
				CHANNELS 6 Xposition Yposition Zposition Zrotation Xrotation Yrotation
				JOINT LeftShoulder
				{
					OFFSET 5.327700 0.000000 0.000000
					CHANNELS 6 Xposition Yposition Zposition Zrotation Xrotation Yrotation
					JOINT LeftElbow
					{
						OFFSET 0.000000 0.000000 -10.713001
						CHANNELS 6 Xposition Yposition Zposition Zrotation Xrotation Yrotation
						JOINT LeftWrist
						{
							OFFSET 0.000000 -0.000002 -13.396900
							CHANNELS 6 Xposition Yposition Zposition Zrotation Xrotation Yrotation
							End Site
							{
								OFFSET 0.000000 0.000000 -2.173901
							}
						}
					}
				}
			}
			JOINT RightCollar
			{
				OFFSET -2.589400 -1.358400 6.105000
				CHANNELS 6 Xposition Yposition Zposition Zrotation Xrotation Yrotation
				JOINT RightShoulder
				{
					OFFSET -4.580200 0.000000 0.000000
					CHANNELS 6 Xposition Yposition Zposition Zrotation Xrotation Yrotation
					JOINT RightElbow
					{
						OFFSET 0.000000 0.000000 -10.761101
						CHANNELS 6 Xposition Yposition Zposition Zrotation Xrotation Yrotation
						JOINT RightWrist
						{
							OFFSET 0.000000 -0.000002 -13.028500
							CHANNELS 6 Xposition Yposition Zposition Zrotation Xrotation Yrotation
							End Site
							{
								OFFSET 0.000000 0.000000 -2.173901
							}
						}
					}
				}
			}
		}
	}
	JOINT LeftHip
	{
		OFFSET 2.532500 0.486900 -2.489700
		CHANNELS 6 Xposition Yposition Zposition Zrotation Xrotation Yrotation
		JOINT LeftKnee
		{
			OFFSET 0.000000 -0.000002 -18.199398
			CHANNELS 6 Xposition Yposition Zposition Zrotation Xrotation Yrotation
			JOINT LeftAnkle
			{
				OFFSET 0.000000 -0.000002 -16.083900
				CHANNELS 6 Xposition Yposition Zposition Zrotation Xrotation Yrotation
				End Site
				{
					OFFSET 0.000000 -8.641399 0.000000
				}
			}
		}
	}
	JOINT RightHip
	{
		OFFSET -2.112700 -0.049900 -2.711102
		CHANNELS 6 Xposition Yposition Zposition Zrotation Xrotation Yrotation
		JOINT RightKnee
		{
			OFFSET 0.000000 -0.000002 -19.127298
			CHANNELS 6 Xposition Yposition Zposition Zrotation Xrotation Yrotation
			JOINT RightAnkle
			{
				OFFSET 0.000000 -0.000002 -14.874901
				CHANNELS 6 Xposition Yposition Zposition Zrotation Xrotation Yrotation
				End Site
				{
					OFFSET 0.000000 -8.198299 0.000000
				}
			}
		}
	}
}
MOTION
Frames: 9
Frame Time: 0.041667
-42.302204 -40.729694 46.417301 -233.183041 18.014545 4.109125 -0.689808 0.941998 5.341004 17.837734 -23.452650 -16.312170 -0.000000 0.000005 4.278894 -1.888985 -0.964772 -0.086538 0.000002 -0.000003 9.970304 54.380877 -17.427188 -0.886429 0.000003 -0.000002 2.173896 3.786866 -2.239177 8.988178 2.472297 -0.285808 5.433903 -19.643052 15.960965 -6.501931 5.327702 0.000007 0.000002 -5.317869 20.210803 -21.248870 0.000000 0.000005 -10.712996 16.916688 -17.463646 35.196375 0.000003 -0.000014 -13.396900 -7.048403 4.196783 -70.108743 -2.589399 -1.358400 6.105003 -0.620396 -6.293190 8.354815 -4.580200 0.000004 -0.000009 27.984243 -74.375583 128.239520 -0.000007 0.000008 -10.761104 -65.046986 -11.064646 -16.728153 0.000006 -0.000001 -13.028500 227.101290 152.306402 491.361295 2.532494 0.486900 -2.489697 4.763730 -16.695151 6.464318 0.000000 0.000000 -18.199400 -328.765254 16.774434 5.785833 -0.000004 -0.000012 -16.083902 345.652569 50.118415 -8.450068 -2.112702 -0.049904 -2.711099 -152.437637 -2.444104 -117.144342 -0.000005 -0.000000 -19.127285 -143.773269 31.921739 218.593675 -0.000001 -0.000009 -14.874897 -42.187753 22.355706 -27.347545
-42.341702 -40.683800 46.639702 -232.982097 17.873109 4.084489 -0.689797 0.941996 5.340994 17.005149 -23.173949 -17.065870 -0.000002 -0.000000 4.278902 -1.139333 -0.963338 -0.118362 0.000004 0.000006 9.970309 54.650939 -17.230156 -0.673541 -0.000002 -0.000004 2.173887 4.975726 -2.124617 9.117990 2.472299 -0.285793 5.433907 -20.036449 15.462915 -6.200478 5.327701 -0.000002 -0.000002 -4.542639 20.714494 -20.965339 -0.000002 0.000003 -10.712998 16.842024 -17.337836 35.268443 0.000001 -0.000005 -13.396894 -7.146845 4.272269 -70.175276 -2.589398 -1.358392 6.105005 0.016852 -5.207408 9.118743 -4.580201 -0.000002 -0.000000 29.335591 -75.611895 130.266310 0.000001 0.000002 -10.761106 -64.641204 -11.053344 -16.740398 0.000004 -0.000003 -13.028503 227.265720 152.384512 491.647617 2.532498 0.486900 -2.489703 5.101920 -16.713094 6.367646 -0.000002 0.000001 -18.199400 -329.337214 16.895340 5.695643 -0.000001 -0.000011 -16.083904 344.282105 51.330651 -6.246950 -2.112704 -0.049903 -2.711101 -152.182297 -2.450316 -117.443136 -0.000001 -0.000005 -19.127295 -144.015112 31.896085 218.408645 -0.000004 -0.000001 -14.874900 -42.075598 22.490787 -27.061088
-42.385899 -40.650295 46.845505 -232.557723 17.917523 4.109434 -0.689793 0.942002 5.341002 17.052643 -23.388753 -17.113891 0.000002 0.000003 4.278907 -1.276693 -0.981218 -0.126979 -0.000000 0.000002 9.970297 54.656905 -17.346717 -0.752860 0.000002 0.000002 2.173899 4.905977 -2.146458 9.152396 2.472304 -0.285799 5.433898 -20.028667 15.584791 -6.105054 5.327701 -0.000001 -0.000006 -4.390385 20.737241 -21.050291 0.000000 0.000001 -10.712990 17.157415 -17.076567 35.503255 -0.000000 -0.000006 -13.396900 -7.389307 4.302161 -70.288616 -2.589401 -1.358398 6.105004 -0.141246 -5.351920 8.657267 -4.580194 0.000000 0.000004 30.585362 -75.048350 131.576136 0.000004 0.000004 -10.761102 -64.937067 -11.023477 -16.860119 0.000001 -0.000001 -13.028499 227.543613 152.299818 491.590680 2.532506 0.486905 -2.489703 5.446593 -16.969076 6.201080 0.000001 0.000000 -18.199400 -329.535618 17.034529 5.626090 -0.000006 -0.000001 -16.083900 342.903145 52.817600 -4.978490 -2.112695 -0.049895 -2.711100 -152.110321 -2.317966 -117.754114 0.000001 0.000004 -19.127291 -144.302499 31.882319 218.244229 -0.000003 -0.000000 -14.874905 -41.893300 22.571521 -26.900133
-42.429699 -40.617397 47.028103 -232.020215 17.784851 4.009018 -0.689805 0.942011 5.340991 17.035982 -23.358142 -17.133980 -0.000004 -0.000007 4.278904 -1.456954 -0.963607 -0.134030 0.000007 0.000002 9.970299 54.779702 -17.512246 -0.767269 0.000004 0.000001 2.173896 4.797732 -2.096703 9.226761 2.472304 -0.285797 5.433902 -19.814167 15.583502 -6.259141 5.327703 0.000006 0.000002 -4.689520 20.923617 -20.865955 -0.000001 0.000002 -10.713001 17.219096 -17.257190 35.673361 -0.000000 0.000006 -13.396897 -7.199933 4.331154 -70.451776 -2.589397 -1.358394 6.105005 -0.279727 -5.691826 8.656823 -4.580198 0.000000 -0.000000 27.784658 -73.951783 128.759284 -0.000002 0.000001 -10.761106 -66.053277 -11.069365 -17.004348 -0.000005 0.000004 -13.028499 227.772465 152.279874 491.629039 2.532490 0.486906 -2.489713 5.570977 -17.019850 6.099702 0.000002 0.000000 -18.199400 -329.585997 17.155758 5.562194 0.000002 -0.000002 -16.083902 341.519540 54.153151 -3.715153 -2.112710 -0.049894 -2.711101 -152.117875 -2.396940 -118.109626 -0.000005 -0.000001 -19.127293 -144.515956 31.909165 218.015568 -0.000002 0.000000 -14.874902 -41.735256 22.623560 -26.534788
-42.477001 -40.587395 47.189400 -231.447025 17.570165 3.911902 -0.689797 0.942006 5.340996 16.936094 -23.190622 -17.211638 0.000006 -0.000007 4.278902 -1.591365 -1.000247 -0.149114 0.000002 0.000002 9.970297 54.760963 -17.686351 -0.732544 0.000006 -0.000002 2.173906 4.830409 -2.093196 9.268463 2.472296 -0.285797 5.433902 -19.630247 15.515915 -6.321246 5.327702 0.000003 -0.000004 -5.015670 21.157049 -20.750511 -0.000001 0.000009 -10.713004 17.221161 -17.368920 35.840424 -0.000005 -0.000005 -13.396902 -7.193089 4.312654 -70.613398 -2.589399 -1.358396 6.105003 -0.468124 -6.017300 8.487400 -4.580208 -0.000006 -0.000005 26.378805 -72.914243 127.206659 0.000006 0.000005 -10.761105 -67.261121 -11.061086 -17.172907 0.000007 0.000001 -13.028494 228.231386 152.262880 491.461289 2.532498 0.486905 -2.489708 5.718659 -16.988798 6.008438 0.000002 -0.000001 -18.199398 -329.880624 17.281239 5.522432 -0.000002 -0.000001 -16.083904 340.474275 55.351593 -2.737043 -2.112702 -0.049898 -2.711101 -152.134992 -2.578046 -118.431123 0.000003 -0.000000 -19.127295 -144.846128 31.953076 217.919153 -0.000005 0.000003 -14.874908 -41.656460 22.623036 -26.241327
-42.525906 -40.554596 47.332199 -230.850067 17.376705 3.888202 -0.689798 0.941991 5.340990 16.636835 -23.028114 -17.460609 0.000000 -0.000001 4.278904 -1.602784 -1.015073 -0.165433 -0.000001 0.000010 9.970296 54.858727 -17.783255 -0.689387 0.000001 -0.000007 2.173900 4.816217 -2.069323 9.293497 2.472300 -0.285793 5.433901 -19.564703 15.367347 -6.387382 5.327697 0.000006 0.000003 -4.969328 21.398639 -20.644781 0.000003 0.000001 -10.712994 17.238718 -17.350200 36.063942 -0.000010 0.000004 -13.396895 -7.503148 4.280134 -70.755685 -2.589405 -1.358387 6.105003 -0.523489 -6.234212 8.700247 -4.580196 -0.000003 0.000004 23.978889 -72.090106 124.676607 0.000001 0.000005 -10.761105 -68.369900 -11.141023 -17.392493 0.000000 -0.000001 -13.028494 228.610311 152.222473 491.586856 2.532497 0.486892 -2.489705 5.793305 -16.977774 5.872329 0.000002 0.000001 -18.199398 -330.320734 17.393213 5.496197 0.000003 -0.000001 -16.083902 339.475346 56.348927 -1.684248 -2.112698 -0.049908 -2.711103 -152.165864 -2.733545 -118.680411 -0.000005 -0.000005 -19.127291 -144.935289 32.290303 217.646368 0.000001 0.000001 -14.874901 -41.338043 22.898609 -25.470242
-42.578205 -40.521992 47.454403 -230.120384 17.099406 3.726377 -0.689793 0.942006 5.340996 16.331715 -22.685300 -17.555232 0.000004 -0.000006 4.278903 -1.637346 -1.054729 -0.185686 0.000010 -0.000002 9.970291 54.891840 -17.944912 -0.629300 0.000004 -0.000002 2.173893 4.807273 -2.047537 9.330470 2.472307 -0.285803 5.433895 -19.460587 15.212954 -6.870435 5.327704 -0.000005 0.000004 -5.083490 21.588145 -20.288631 -0.000006 -0.000005 -10.713000 17.267837 -17.335831 36.340988 -0.000007 0.000002 -13.396896 -7.766308 4.238530 -70.851116 -2.589397 -1.358399 6.105004 -0.705311 -6.590224 8.857581 -4.580203 0.000002 -0.000001 22.094082 -71.097181 122.543538 -0.000002 0.000004 -10.761102 -69.466992 -11.080081 -17.488640 -0.000002 0.000001 -13.028500 229.019030 152.243537 491.751327 2.532499 0.486908 -2.489706 5.783102 -16.833290 5.801053 0.000000 0.000001 -18.199404 -330.704209 17.478434 5.547360 -0.000000 -0.000002 -16.083900 338.573488 57.235192 -0.638801 -2.112701 -0.049896 -2.711103 -152.288329 -3.073986 -118.982701 -0.000006 -0.000004 -19.127298 -145.347682 32.431323 217.745529 0.000006 -0.000006 -14.874897 -41.067315 23.024954 -25.425893
-42.635899 -40.493301 47.567600 -229.579214 17.000510 3.706336 -0.689795 0.941999 5.341003 16.064713 -22.520949 -17.788651 0.000004 0.000001 4.278909 -1.626396 -1.112772 -0.210731 0.000003 0.000000 9.970304 54.990707 -17.987889 -0.560098 0.000002 0.000002 2.173892 4.828738 -1.969320 9.282025 2.472302 -0.285802 5.433907 -19.290082 14.980954 -6.999469 5.327701 0.000005 -0.000000 -5.169300 21.854929 -20.181660 0.000003 -0.000004 -10.713001 17.233112 -17.376387 36.500043 -0.000003 -0.000005 -13.396896 -7.921476 4.240000 -70.877570 -2.589401 -1.358400 6.105011 -0.790015 -6.825872 9.073016 -4.580208 -0.000004 -0.000003 20.569591 -70.125040 120.755545 -0.000006 0.000007 -10.761108 -70.704984 -10.949446 -17.570204 0.000007 0.000008 -13.028496 229.600989 152.257470 491.819301 2.532502 0.486901 -2.489704 6.078110 -16.946884 5.774583 -0.000003 0.000003 -18.199404 -330.789777 17.664531 5.436786 0.000000 -0.000001 -16.083900 337.358753 58.220751 0.226440 -2.112694 -0.049903 -2.711097 -152.210206 -3.304332 -119.274200 -0.000008 -0.000001 -19.127295 -145.851941 32.595667 217.813339 -0.000002 0.000001 -14.874897 -40.931531 23.108219 -25.239743
-42.697800 -40.469795 47.660709 -229.165592 17.133263 3.762917 -0.689801 0.942005 5.340999 15.967949 -22.655659 -17.977606 0.000002 -0.000008 4.278902 -1.625603 -1.137674 -0.232329 0.000003 -0.000002 9.970297 54.979140 -18.008422 -0.492964 -0.000006 -0.000000 2.173889 4.899506 -1.945807 9.253556 2.472300 -0.285802 5.433895 -19.210617 14.884794 -7.115462 5.327700 0.000001 -0.000004 -5.353666 21.985471 -20.024863 0.000003 -0.000001 -10.712998 17.298480 -17.356125 36.558161 -0.000002 -0.000005 -13.396895 -7.973001 4.244647 -70.824246 -2.589405 -1.358400 6.104994 -0.833068 -6.974307 9.246634 -4.580195 -0.000001 -0.000009 20.874356 -69.981292 120.839652 -0.000003 0.000002 -10.761104 -71.357944 -10.576115 -17.639218 0.000000 0.000001 -13.028492 230.381926 152.274191 491.736464 2.532501 0.486907 -2.489705 6.552322 -17.278997 5.744056 -0.000002 0.000002 -18.199402 -331.084404 17.842384 5.409871 0.000004 -0.000001 -16.083897 336.203494 59.082762 1.216847 -2.112701 -0.049896 -2.711101 -151.984003 -3.282815 -119.621993 0.000001 -0.000005 -19.127300 -146.463612 32.678668 218.046754 -0.000005 0.000004 -14.874902 -40.827732 23.191106 -25.293123
